<svg width="114" height="46" viewBox="0 0 114 46" fill="none" xmlns="http://www.w3.org/2000/svg">
<path d="M0 29.4713C0 30.7076 0.434496 31.7454 1.30435 32.5857C2.21645 33.4665 3.27252 33.9074 4.47428 33.9074H15.6815V30.5057H4.47428C4.18461 30.5057 3.96133 30.4307 3.80615 30.2805C3.62253 30.1028 3.53028 29.9087 3.53028 29.6965V28.1496H15.6815V24.7281H3.53028V22.3824H15.6815V18.9703H0V29.4713Z" fill="#15A6DD"/>
<path d="M40.8473 33.9073H52.0546V30.5056H40.8473C40.5577 30.5056 40.3344 30.4305 40.1792 30.2804C39.9956 30.1027 39.9033 29.9086 39.9033 29.6964V18.9694H36.373V29.4703C36.373 30.7066 36.8075 31.7445 37.6774 32.5847C38.5895 33.4656 39.6456 33.9064 40.8473 33.9064V33.9073Z" fill="#15A6DD"/>
<path d="M57.0313 18.9703H53.501V33.9074H57.0313V18.9703Z" fill="#15A6DD"/>
<path d="M58.4805 23.314V33.9073H62.0107V29.8499H71.1688C72.3162 29.8499 73.4525 29.4548 74.2948 28.6749C75.2379 27.801 75.7095 26.7381 75.7095 25.4855V18.9694H63.0332C61.8832 18.9694 60.7461 19.3679 59.9012 20.1487C58.9538 21.0252 58.4805 22.0795 58.4805 23.3131V23.314ZM62.0107 23.314C62.0107 23.0543 62.0987 22.8395 62.2763 22.6687C62.4668 22.4772 62.6823 22.3814 62.9228 22.3814H72.1792V25.4855C72.1792 25.7589 72.0904 25.9807 71.9145 26.1515C71.7162 26.343 71.5007 26.4379 71.2679 26.4379H62.0116V23.3131L62.0107 23.314Z" fill="#15A6DD"/>
<path d="M34.4399 30.5049V33.9117H28.0112C25.9594 33.9117 24.0878 32.5452 23.6464 30.5403L23.6387 30.5057H34.439L34.4399 30.5049Z" fill="#15A6DD"/>
<path d="M34.9276 18.9675V22.3882H24.7988C24.8825 22.1924 24.9807 22.0095 25.079 21.8136C25.079 21.7998 25.0928 21.7714 25.0928 21.7576C25.4713 20.7904 25.9049 19.851 26.3678 18.9675H34.9276Z" fill="#15A6DD"/>
<path d="M93.7781 9.53301C92.5169 5.00461 88.4969 1.76684 82.7674 0C86.158 1.52787 88.5676 3.77093 89.6038 6.6593C89.8978 7.24767 90.1357 7.85071 90.3185 8.49602C91.047 11.0893 90.6832 13.907 89.4081 16.7669C89.0719 17.4959 88.6935 18.2387 88.2452 18.9677H82.8234C81.6191 18.9677 80.582 19.4025 79.6854 20.2574C78.8311 21.0848 78.4104 22.1218 78.4104 23.3692V28.0374H79.7828C74.8517 31.8644 68.5058 35.2575 61.3055 37.6541C50.0422 41.4112 39.2419 41.8598 31.8167 39.4761C29.0287 38.5927 26.7036 37.303 25.0225 35.6353C24.4759 35.103 23.9863 34.5276 23.5793 33.9108C23.5233 33.8124 23.4535 33.7287 23.3974 33.6304C22.9207 32.8591 22.5569 32.018 22.3043 31.1354C22.2483 30.9249 22.1922 30.7144 22.15 30.5048C22.094 30.2667 22.0517 30.0277 22.0241 29.7896C21.8422 28.3877 21.9396 26.9435 22.3043 25.4579C22.5285 24.4908 22.8785 23.4529 23.3552 22.3875C23.6216 21.7991 23.9156 21.2099 24.2518 20.6215C24.5604 20.0745 24.8966 19.5276 25.2466 18.9668C25.4285 18.6864 25.6113 18.4198 25.8208 18.1395C26.1286 17.6908 26.4648 17.2284 26.8157 16.766C28.1881 14.9716 29.8554 13.1495 31.7468 11.3827C31.7891 11.3404 31.8167 11.3128 31.8313 11.299C29.3795 13.0236 27.1665 14.8741 25.2889 16.766C24.5923 17.4847 23.9294 18.1697 23.3535 18.9263C23.325 18.9409 23.3009 18.9521 23.2716 18.9668H17.7938V29.4669C17.7938 29.5506 17.8076 29.6351 17.8076 29.7188C17.7654 30.3357 17.7938 30.7282 17.8214 31.345C17.8637 32.3967 17.9611 33.4337 18.2412 34.4431C18.3533 34.8494 18.4938 35.2419 18.6473 35.6345C22.7664 45.7705 41.4118 48.8961 61.5564 42.1816C67.9868 40.0369 73.8145 37.177 78.6888 33.9108C78.8285 33.8124 78.969 33.7287 79.1095 33.6304C80.5941 32.621 81.9812 31.5694 83.2838 30.4901C83.5778 30.252 83.858 30.013 84.1244 29.7749C84.7968 29.2003 85.4278 28.6258 86.0296 28.0365C86.3796 27.7001 86.7296 27.3498 87.052 26.9995C87.7521 26.2844 88.3969 25.5554 88.9848 24.8264C89.3909 24.3493 89.7556 23.8731 90.1056 23.3822C90.3582 23.0457 90.5823 22.7093 90.8056 22.3866C91.1978 21.7982 91.5625 21.209 91.8841 20.6206C92.1918 20.0737 92.4729 19.5129 92.7246 18.9659C93.047 18.2369 93.3272 17.4941 93.5514 16.7652C94.3074 14.2702 94.4195 11.8304 93.7755 9.53128L93.7781 9.53301ZM84.8821 23.3839C84.4476 23.8748 83.9718 24.351 83.4812 24.8281H81.7303V23.3701C81.7303 23.1458 81.8424 22.9215 82.0803 22.6834C82.2907 22.4867 82.5424 22.3892 82.8226 22.3892H85.7787C85.4847 22.7119 85.1899 23.0483 84.8821 23.3848V23.3839Z" fill="#15A6DD"/>
<path d="M93.3346 20.6207C93.0078 21.2082 92.6483 21.7957 92.2578 22.3824H96.1881V18.9703H94.1656C93.9182 19.5199 93.6415 20.0703 93.3354 20.6207H93.3346Z" fill="#15A6DD"/>
<path d="M90.4382 24.8306C89.84 25.5604 89.1942 26.286 88.5037 27.0046C88.1718 27.3506 87.8287 27.6948 87.4761 28.0373H92.4452V29.6255C92.4099 29.8102 92.2969 29.9982 92.1055 30.1889C91.8935 30.3942 91.6426 30.496 91.3529 30.496H84.7303C83.432 31.5718 82.0354 32.62 80.5491 33.632C80.4138 33.7243 80.2767 33.8158 80.1396 33.9081H91.7762C92.978 33.9081 94.0237 33.4776 94.9142 32.6174C95.7694 31.791 96.197 30.7566 96.197 29.5134L96.1867 24.8314H90.4365L90.4382 24.8306Z" fill="#15A6DD"/>
<path d="M114 22.3824V18.9703H98.3184V29.4713C98.3184 30.7076 98.7529 31.7454 99.6227 32.5857C100.535 33.4665 101.591 33.9074 102.793 33.9074H114V30.5057H102.793C102.503 30.5057 102.28 30.4307 102.125 30.2805C101.941 30.1028 101.849 29.9087 101.849 29.6965V28.1496H113.999V24.7281H101.849V22.3824H113.999H114Z" fill="#15A6DD"/>
</svg>
